HIERARCHY
ROOT Hips
{
    OFFSET 0.000000 0.000000 0.000000
    CHANNELS 6 Xposition Yposition Zposition Zrotation Xrotation Yrotation
    JOINT Spine
    {
        OFFSET -0.000000 14.517291 0.000000
        CHANNELS 3 Zrotation Xrotation Yrotation
        JOINT Spine1
        {
            OFFSET -0.000000 37.558300 0.000000
            CHANNELS 3 Zrotation Xrotation Yrotation
            JOINT Neck
            {
                OFFSET -0.000000 37.404057 3.400369
                CHANNELS 3 Zrotation Xrotation Yrotation
                JOINT Head
                {
                    OFFSET -0.000000 24.785618 -3.540803
                    CHANNELS 3 Zrotation Xrotation Yrotation
                    End Site
                    {
                        OFFSET -0.000000 35.408028 0.000000
                    }
                }
            }
            JOINT LeftShoulder
            {
                OFFSET 6.992933 33.973492 -0.192664
                CHANNELS 3 Zrotation Xrotation Yrotation
                JOINT LeftArm
                {
                    OFFSET 21.527611 0.000000 0.000000
                    CHANNELS 3 Zrotation Xrotation Yrotation
                    JOINT LeftForeArm
                    {
                        OFFSET 56.353916 0.000000 0.000000
                        CHANNELS 3 Zrotation Xrotation Yrotation
                        JOINT LeftHand
                        {
                            OFFSET 47.774071 0.000000 0.000000
                            CHANNELS 3 Zrotation Xrotation Yrotation
                            End Site
                            {
                                OFFSET 26.556021 0.000000 0.000000
                            }
                        }
                    }
                }
            }
            JOINT RightShoulder
            {
                OFFSET -7.065357 33.973492 -0.192664
                CHANNELS 3 Zrotation Xrotation Yrotation
                JOINT RightArm
                {
                    OFFSET -21.527611 0.000000 0.000000
                    CHANNELS 3 Zrotation Xrotation Yrotation
                    JOINT RightForeArm
                    {
                        OFFSET -56.353916 0.000000 0.000000
                        CHANNELS 3 Zrotation Xrotation Yrotation
                        JOINT RightHand
                        {
                            OFFSET -47.774071 0.000000 0.000000
                            CHANNELS 3 Zrotation Xrotation Yrotation
                            End Site
                            {
                                OFFSET -26.556021 0.000000 0.000000
                            }
                        }
                    }
                }
            }
        }
    }
    JOINT LeftUpLeg
    {
        OFFSET 17.704014 0.000000 0.000000
        CHANNELS 3 Zrotation Xrotation Yrotation
        JOINT LeftLeg
        {
            OFFSET -0.000000 -81.181816 0.000000
            CHANNELS 3 Zrotation Xrotation Yrotation
            JOINT LeftFoot
            {
                OFFSET -0.000000 -62.821102 0.000000
                CHANNELS 3 Zrotation Xrotation Yrotation
                JOINT LeftToeBase
                {
                    OFFSET -0.000000 -11.507608 26.556021
                    CHANNELS 3 Zrotation Xrotation Yrotation
                    End Site
                    {
                        OFFSET -0.000000 0.000000 7.081605
                    }
                }
            }
        }
    }
    JOINT RightUpLeg
    {
        OFFSET -17.704014 0.000000 0.000000
        CHANNELS 3 Zrotation Xrotation Yrotation
        JOINT RightLeg
        {
            OFFSET -0.000000 -81.181816 0.000000
            CHANNELS 3 Zrotation Xrotation Yrotation
            JOINT RightFoot
            {
                OFFSET -0.000000 -62.821102 0.000000
                CHANNELS 3 Zrotation Xrotation Yrotation
                JOINT RightToeBase
                {
                    OFFSET -0.000000 -11.507608 26.556021
                    CHANNELS 3 Zrotation Xrotation Yrotation
                    End Site
                    {
                        OFFSET -0.000000 0.000000 7.081605
                    }
                }
            }
        }
    }
}
MOTION
Frames:    4
Frame Time:    0.008333
-13.219723    156.814331    -91.475502    -2.089740    -7.950839    54.745319    1.176171    -2.659053    3.621970    -10.408944    3.672128    1.530044    -1.735129    2.126905    -26.569519    21.253960    5.481725    -25.680918    4.012281    7.942084    -19.856686    -31.384453    24.791779    -48.711014    -11.333347    -5.936895    -114.529938    4.001398    -23.174505    -1.546110    -15.886409    -6.518311    -1.841318    18.345331    -26.197796    60.293564    -5.168020    -13.561142    37.756420    6.986100    -9.971033    30.369162    26.055073    -3.973529    -7.268532    -10.931013    28.576015    -21.918587    -3.319576    -24.555082    40.872795    0.000000    0.000000    0.000000    -11.355686    -13.007710    -24.835487    5.986915    20.837765    -20.155764    6.936066    6.535560    -12.140994    0.000000    0.000000    0.000000    
-13.174148    156.819824    -91.461273    -2.105622    -7.973948    54.786232    1.131661    -2.677516    3.561519    -10.393507    3.687493    1.511060    -1.676065    2.143324    -26.570978    21.250971    5.479931    -25.690453    4.047800    7.949493    -19.838385    -31.417629    24.757208    -48.698868    -11.381932    -5.904555    -114.518845    4.113940    -23.212112    -1.481211    -15.843393    -6.473725    -1.970384    17.839802    -26.172670    59.402905    -5.579238    -14.052101    37.440048    7.161973    -10.294457    30.447889    26.075132    -3.983309    -7.285085    -10.919683    28.589531    -21.948206    -3.284858    -24.558550    40.878780    0.000000    0.000000    0.000000    -11.329115    -12.963996    -24.861326    5.973811    20.802275    -20.152248    6.948830    6.539274    -12.148095    0.000000    0.000000    0.000000    
-13.133368    156.824280    -91.446129    -2.132952    -7.993135    54.823719    1.078916    -2.710950    3.514245    -10.366035    3.707839    1.496530    -1.589443    2.181022    -26.576653    21.224554    5.445517    -25.704199    4.033916    7.801368    -20.006046    -31.620138    24.736670    -48.375851    -11.431353    -5.777589    -114.577019    4.273471    -23.184141    -1.353989    -15.785178    -6.431250    -2.097152    17.475262    -26.302139    58.554554    -5.774938    -14.352442    37.205097    7.182609    -10.541799    30.439240    26.103640    -4.006096    -7.301271    -10.915827    28.605663    -21.961876    -3.269644    -24.559830    40.871025    0.000000    0.000000    0.000000    -11.297953    -12.933033    -24.870844    5.967945    20.767515    -20.157593    6.967174    6.544347    -12.163370    0.000000    0.000000    0.000000    
-13.092795    156.833679    -91.432022    -2.161650    -8.013778    54.865494    1.017843    -2.733932    3.452954    -10.308457    3.713533    1.475063    -1.562778    2.217260    -26.585150    21.252071    5.434498    -25.712894    4.052739    7.794857    -20.015940    -31.669750    24.738840    -48.334427    -11.420948    -5.811954    -114.584137    4.288708    -23.201073    -1.299824    -15.745396    -6.414616    -2.249568    17.082870    -26.313189    57.728298    -6.075176    -14.696717    36.933407    7.258853    -10.784482    30.477011    26.130611    -4.031651    -7.319530    -10.912173    28.614420    -21.947359    -3.282247    -24.573080    40.843838    0.000000    0.000000    0.000000    -11.263588    -12.899030    -24.886206    5.959021    20.724211    -20.151039    6.988004    6.552681    -12.186080    0.000000    0.000000    0.000000    
